<svg width="107" height="39" viewBox="0 0 107 39" fill="none" xmlns="http://www.w3.org/2000/svg">
<g clip-path="url(#clip0_60_47)">
<path fill-rule="evenodd" clip-rule="evenodd" d="M7.26978 0.255249L5.4512 5.18731H30.6527L32.4712 0.255249H7.26978ZM4.54134 7.65223L2.72276 12.5832H27.9242L29.7428 7.65223H4.54134ZM1.81858 15.0492L0 19.9802H25.2015L27.0189 15.0492H1.81858Z" fill="#009FDF"/>
<mask id="mask0_60_47" style="mask-type:alpha" maskUnits="userSpaceOnUse" x="37" y="7" width="70" height="31">
<path d="M37.8101 37.9591H106.796V7.74707H37.8101V37.9591Z" fill="white"/>
</mask>
<g mask="url(#mask0_60_47)">
<path fill-rule="evenodd" clip-rule="evenodd" d="M53.5765 21.8597V21.9637C54.7283 22.3823 55.8284 23.1141 56.4048 23.5841C58.1857 25.0479 58.9718 26.9816 58.9718 29.4906C58.9718 33.6211 56.7715 36.6001 53.1571 37.5412C52.057 37.8546 50.9052 37.9598 48.7565 37.9598H37.8101V7.74707H47.5005C49.4911 7.74707 50.8525 7.85113 52.057 8.16447C55.5671 9.10561 57.8717 11.5105 57.8717 15.3254C57.8717 17.3644 57.1383 19.09 55.9338 20.2393C55.4101 20.7619 54.6767 21.3897 53.5765 21.8597ZM43.8861 25.0479V32.9933H48.0769C49.3329 32.9933 50.4858 32.8892 51.3247 32.1048C52.1624 31.3203 52.5291 30.3277 52.5291 29.0206C52.5291 28.028 52.2667 27.0868 51.743 26.4076C50.8525 25.3098 49.7524 25.0479 47.8672 25.0479H43.8861ZM43.8334 19.8207H47.2381C48.2855 19.8207 48.8092 19.8207 49.333 19.664C50.7482 19.2455 51.6387 17.9922 51.6387 16.2665C51.6387 14.2287 50.6955 13.339 49.333 12.9217C48.7565 12.765 48.1812 12.7124 47.0284 12.7124H43.8334V19.8207ZM68.0859 37.9598V12.8164H59.3386V7.74707H83.6438L81.9156 12.8164H74.1619V37.9598H68.0859ZM85.5289 37.9598V7.74707H105.225L103.497 12.8164H91.5534V19.5074H96.425C100.353 19.5074 102.397 20.4485 103.811 21.6504C104.911 22.5915 106.796 24.682 106.796 28.8125C106.796 32.8892 104.858 35.1363 103.234 36.2867C101.349 37.5927 99.3587 37.9598 95.3248 37.9598H85.5289ZM91.5534 32.8892H96.111C97.8391 32.8892 98.8865 32.4707 99.62 31.5296C99.9867 31.0596 100.51 30.2225 100.51 28.6547C100.51 27.0868 99.9867 25.989 98.9393 25.2046C98.3113 24.7346 97.4724 24.4738 96.0582 24.4738H91.5534V32.8892Z" fill="white"/>
</g>
</g>
<defs>
<clipPath id="clip0_60_47">
<rect width="107" height="38" fill="white" transform="translate(0 0.255249)"/>
</clipPath>
</defs>
</svg>
