<svg width="35" height="35" viewBox="0 0 35 35" fill="none" xmlns="http://www.w3.org/2000/svg">
<g clip-path="url(#clip0_234_414)">
<path d="M18.0479 25.2786H16.8587C15.8658 25.2786 15.061 24.4921 15.061 23.521V10.6682C15.061 9.69708 15.8658 8.91064 16.8595 8.91064H18.0487C19.0416 8.91064 19.8463 9.69708 19.8463 10.6682V23.5217C19.8463 24.4921 19.0416 25.2786 18.0479 25.2786Z" fill="#FBD490"/>
<path d="M17.5 34.375C7.85034 34.375 0 26.7349 0 17.3438C0 7.95256 7.85034 0.3125 17.5 0.3125C27.1497 0.3125 35 7.95256 35 17.3438C35 26.7349 27.1497 34.375 17.5 34.375Z" fill="#F0C419"/>
<path d="M16.0811 9.68414C16.0811 8.85858 16.7503 8.18933 17.5759 8.18933C18.4014 8.18933 19.0707 8.85858 19.0707 9.68414V23.5446C19.0707 24.3701 18.4014 25.0394 17.5759 25.0394H17.5013C16.7169 25.0394 16.0811 24.4035 16.0811 23.6191C15.2004 24.7906 13.9489 25.3764 12.3267 25.3764C10.7662 25.3764 9.42974 24.7666 8.31732 23.5469C7.22036 22.3113 6.67188 20.8028 6.67188 19.0215C6.67188 17.2402 7.22036 15.7398 8.31732 14.5201C9.42974 13.2845 10.7662 12.6666 12.3267 12.6666C13.9489 12.6666 15.2004 13.2524 16.0811 14.4238V9.68414ZM10.5653 21.4768C11.1833 22.1026 11.9558 22.4156 12.8829 22.4156C13.8099 22.4156 14.5747 22.1026 15.1772 21.4768C15.7798 20.8349 16.0811 20.0165 16.0811 19.0215C16.0811 18.0265 15.7798 17.2161 15.1772 16.5903C14.5747 15.9484 13.8099 15.6274 12.8829 15.6274C11.9558 15.6274 11.1833 15.9484 10.5653 16.5903C9.96277 17.2161 9.66149 18.0265 9.66149 19.0215C9.66149 20.0165 9.96277 20.8349 10.5653 21.4768Z" fill="#FFF8BD"/>
<path d="M24.7944 15.0738C25.0725 14.3035 25.5283 13.7258 26.1618 13.3406C26.345 13.2319 26.5337 13.1385 26.7279 13.0605C27.5616 12.7256 28.3171 13.4912 28.3171 14.3897C28.3171 15.367 27.4155 16.0799 26.512 16.4526C26.2871 16.5453 26.0699 16.6634 25.8605 16.8069C25.1498 17.3044 24.7944 18.1309 24.7944 19.2863V23.5446C24.7944 24.3701 24.1252 25.0394 23.2996 25.0394C22.4741 25.0394 21.8048 24.3701 21.8048 23.5446V14.4984C21.8048 13.6729 22.4741 13.0036 23.2996 13.0036C24.1252 13.0036 24.7944 13.6729 24.7944 14.4984V15.0738Z" fill="#FFF8BD"/>
</g>
<defs>
<clipPath id="clip0_234_414">
<rect width="35" height="35" fill="white"/>
</clipPath>
</defs>
</svg>
