<svg width="32" height="33" viewBox="0 0 32 33" fill="none" xmlns="http://www.w3.org/2000/svg">
<g clip-path="url(#clip0_219_6969)">
<rect y="0.665039" width="31.8418" height="31.8418" rx="15.9209" fill="#0085FF"/>
<path d="M7.15579 18.3547C7.32089 19.1389 7.69926 19.7443 8.29089 20.1708C8.88252 20.5836 9.60486 20.79 10.4579 20.79C11.6412 20.79 12.5286 20.3635 13.1202 19.5104L14.957 20.5836C13.9389 22.0833 12.4323 22.8332 10.4373 22.8332C8.75869 22.8332 7.40345 22.3241 6.37154 21.3059C5.33963 20.274 4.82367 18.9738 4.82367 17.4053C4.82367 15.8643 5.33275 14.5779 6.3509 13.546C7.36905 12.5003 8.67614 11.9775 10.2722 11.9775C11.7856 11.9775 13.0239 12.5072 13.987 13.5666C14.9639 14.6261 15.4523 15.9125 15.4523 17.426C15.4523 17.6599 15.4248 17.9694 15.3698 18.3547H7.15579ZM7.13515 16.5385H13.2028C13.0514 15.6992 12.7006 15.0663 12.1502 14.6398C11.6136 14.2133 10.9807 14 10.2515 14C9.42599 14 8.73805 14.227 8.1877 14.6811C7.63735 15.1351 7.2865 15.7543 7.13515 16.5385ZM26.1149 22.5649H23.5351L20.976 19.0357L18.3962 22.5649H15.7958L19.6758 17.2609L16.0022 12.2458H18.5819L20.9553 15.5066L23.3287 12.2458H25.9291L22.2555 17.2815L26.1149 22.5649Z" fill="#6DB9FF"/>
</g>
<defs>
<clipPath id="clip0_219_6969">
<rect y="0.665039" width="31.8418" height="31.8418" rx="15.9209" fill="white"/>
</clipPath>
</defs>
</svg>
