<svg width="49" height="48" viewBox="0 0 49 48" fill="none" xmlns="http://www.w3.org/2000/svg">
<path d="M36.0566 45.9536V34.1132C36.0566 32.5119 35.4478 30.9762 34.3642 29.8439C33.2806 28.7116 31.8108 28.0755 30.2783 28.0755H18.7217C17.1892 28.0755 15.7195 28.7116 14.6358 29.8439C13.5522 30.9762 12.9434 32.5119 12.9434 34.1132V45.9536" stroke="white" stroke-width="3.33333" stroke-linecap="round" stroke-linejoin="round"/>
<path d="M24.5 22.6415C27.8189 22.6415 30.5094 20.0059 30.5094 16.7547C30.5094 13.5035 27.8189 10.8679 24.5 10.8679C21.1811 10.8679 18.4905 13.5035 18.4905 16.7547C18.4905 20.0059 21.1811 22.6415 24.5 22.6415Z" stroke="white" stroke-width="3.33333" stroke-linecap="round" stroke-linejoin="round"/>
<rect x="1.5" y="1.5" width="46" height="45" rx="22.5" stroke="white" stroke-width="3"/>
</svg>
