<svg width="49" height="48" viewBox="0 0 49 48" fill="none" xmlns="http://www.w3.org/2000/svg">
<path d="M36.0566 42.9536V34.1132C36.0566 32.5119 35.4478 30.9761 34.3641 29.8439C33.2805 28.7116 31.8108 28.0754 30.2783 28.0754H18.7217C17.1892 28.0754 15.7194 28.7116 14.6358 29.8439C13.5521 30.9761 12.9434 32.5119 12.9434 34.1132V42.9536" stroke="white" stroke-width="3.33333" stroke-linecap="round" stroke-linejoin="round"/>
<path d="M24.4997 22.6415C27.8186 22.6415 30.5091 20.0059 30.5091 16.7547C30.5091 13.5035 27.8186 10.8679 24.4997 10.8679C21.1807 10.8679 18.4902 13.5035 18.4902 16.7547C18.4902 20.0059 21.1807 22.6415 24.4997 22.6415Z" stroke="white" stroke-width="3.33333" stroke-linecap="round" stroke-linejoin="round"/>
<rect x="1.5" y="1.5" width="46" height="45" rx="22.5" stroke="white" stroke-width="3"/>
</svg>
