<svg width="29" height="29" viewBox="0 0 29 29" fill="none" xmlns="http://www.w3.org/2000/svg">
<g clip-path="url(#clip0_293_937)">
<path d="M14.9538 20.9451H13.9685C13.1458 20.9451 12.479 20.2934 12.479 19.4888V8.83936C12.479 8.03468 13.1458 7.38306 13.9692 7.38306H14.9545C15.7772 7.38306 16.444 8.03468 16.444 8.83936V19.4894C16.444 20.2934 15.7772 20.9451 14.9538 20.9451Z" fill="#FBD490"/>
<path d="M14.5 28.4821C6.50457 28.4821 0 22.1518 0 14.3705C0 6.58925 6.50457 0.258911 14.5 0.258911C22.4954 0.258911 29 6.58925 29 14.3705C29 22.1518 22.4954 28.4821 14.5 28.4821Z" fill="#F0C419"/>
<path d="M13.3243 8.02402C13.3243 7.33998 13.8788 6.78546 14.5628 6.78546C15.2468 6.78546 15.8014 7.33998 15.8014 8.02402V19.5084C15.8014 20.1924 15.2468 20.7469 14.5628 20.7469H14.501C13.8511 20.7469 13.3243 20.2201 13.3243 19.5702C12.5946 20.5408 11.5576 21.0261 10.2135 21.0261C8.9205 21.0261 7.81316 20.5209 6.89145 19.5103C5.98253 18.4865 5.52808 17.2366 5.52808 15.7607C5.52808 14.2848 5.98253 13.0415 6.89145 12.031C7.81316 11.0071 8.9205 10.4952 10.2135 10.4952C11.5576 10.4952 12.5946 10.9805 13.3243 11.9512V8.02402ZM8.75408 17.7951C9.26615 18.3136 9.90623 18.5729 10.6743 18.5729C11.4424 18.5729 12.0761 18.3136 12.5754 17.7951C13.0746 17.2632 13.3243 16.5851 13.3243 15.7607C13.3243 14.9363 13.0746 14.2648 12.5754 13.7462C12.0761 13.2144 11.4424 12.9484 10.6743 12.9484C9.90623 12.9484 9.26615 13.2144 8.75408 13.7462C8.25482 14.2648 8.00519 14.9363 8.00519 15.7607C8.00519 16.5851 8.25482 17.2632 8.75408 17.7951Z" fill="#FFF8BD"/>
<path d="M20.5439 12.4897C20.7743 11.8515 21.152 11.3728 21.6769 11.0537C21.8286 10.9636 21.985 10.8862 22.146 10.8216C22.8367 10.5441 23.4627 11.1785 23.4627 11.9229C23.4627 12.7327 22.7156 13.3233 21.967 13.6321C21.7807 13.709 21.6008 13.8069 21.4272 13.9258C20.8383 14.3379 20.5439 15.0227 20.5439 15.9801V19.5084C20.5439 20.1924 19.9894 20.7469 19.3054 20.7469C18.6213 20.7469 18.0668 20.1924 18.0668 19.5084V12.013C18.0668 11.329 18.6213 10.7745 19.3054 10.7745C19.9894 10.7745 20.5439 11.329 20.5439 12.013V12.4897Z" fill="#FFF8BD"/>
</g>
<defs>
<clipPath id="clip0_293_937">
<rect width="29" height="29" fill="white"/>
</clipPath>
</defs>
</svg>
