<svg width="46" height="47" viewBox="0 0 46 47" fill="none" xmlns="http://www.w3.org/2000/svg">
<g clip-path="url(#clip0_60_65)">
<path d="M23.0305 46.5104C10.3649 46.5104 0.0610352 36.2065 0.0610352 23.5409C0.0610352 10.8753 10.3649 0.571411 23.0305 0.571411C35.6961 0.571411 46 10.8753 46 23.5409C46 36.2065 35.6961 46.5104 23.0305 46.5104Z" fill="#F0C419"/>
<path d="M23.8085 33.9816H22.2518C20.9519 33.9816 19.8984 32.9281 19.8984 31.6272V14.4105C19.8984 13.1096 20.9519 12.0562 22.2528 12.0562H23.8095C25.1094 12.0562 26.1628 13.1096 26.1628 14.4105V31.6283C26.1628 32.9281 25.1094 33.9816 23.8085 33.9816Z" fill="#FBD490"/>
<path d="M23.0305 46.5104C10.3649 46.5104 0.0610352 36.2065 0.0610352 23.5409C0.0610352 10.8753 10.3649 0.571411 23.0305 0.571411C35.6961 0.571411 46 10.8753 46 23.5409C46 36.2065 35.6961 46.5104 23.0305 46.5104Z" fill="#F0C419"/>
<path d="M23.8085 33.9816H22.2518C20.9519 33.9816 19.8984 32.9281 19.8984 31.6272V14.4105C19.8984 13.1096 20.9519 12.0562 22.2528 12.0562H23.8095C25.1094 12.0562 26.1628 13.1096 26.1628 14.4105V31.6283C26.1628 32.9281 25.1094 33.9816 23.8085 33.9816Z" fill="#FBD490"/>
</g>
<defs>
<clipPath id="clip0_60_65">
<rect width="45.939" height="45.939" fill="white" transform="translate(0.0610352 0.571411)"/>
</clipPath>
</defs>
</svg>
